<?xml version="1.0" encoding="UTF-8"?> <svg xmlns="http://www.w3.org/2000/svg" width="25" height="25" viewBox="0 0 25 25" fill="none"><path fill-rule="evenodd" clip-rule="evenodd" d="M24.393 12.625C24.393 5.95833 18.9861 0.625 12.3965 0.625C5.80689 0.625 0.400024 6.04167 0.400024 12.625C0.400024 19.2083 5.80689 24.625 12.3965 24.625C15.4379 24.625 18.3103 23.4583 20.5913 21.375C21.0137 20.9583 21.0982 20.2917 20.6758 19.7917C20.2533 19.375 19.5775 19.2917 19.1551 19.7083C17.3809 21.375 14.931 22.375 12.481 22.375C9.60858 22.375 6.98964 21.125 5.13103 19.125L10.2844 10.9583V14.7083C10.2844 16.5417 10.9603 17.125 11.5517 17.2917C12.1431 17.4583 13.0724 17.375 14.0017 15.7917L16.7896 11.2917C16.8318 11.2083 16.8741 11.1458 16.9163 11.0833C16.9585 11.0208 17.0008 10.9583 17.043 10.875V13.125C17.043 14.7917 17.7189 16.125 18.9016 16.7917C19.9999 17.375 21.3516 17.375 22.4499 16.625C23.8016 16.0417 24.4775 14.4583 24.393 12.625ZM19.9999 15.0417C20.3378 15.2917 20.8447 15.2083 21.2671 14.9583C21.943 14.5417 22.2809 13.7083 22.1964 12.625C22.1964 7.20833 17.8034 2.70833 12.3965 2.70833C6.98964 2.70833 2.59656 7.125 2.59656 12.5417C2.59656 14.2083 3.01897 15.7917 3.77931 17.2083L9.43962 8.20833C10.1155 7.20833 10.7913 7.125 11.2982 7.29167C11.9741 7.45833 12.3965 8.125 12.3965 9.29167V14.2917L14.931 10.2083L14.9387 10.1961C15.3667 9.52048 16.4604 7.7942 17.8878 8.20833C18.7327 8.45833 19.2396 9.375 19.2396 10.625V13.2917C19.2396 14.125 19.493 14.7917 19.9999 15.0417Z" fill="white"></path></svg> 