<?xml version="1.0" encoding="UTF-8"?> <svg xmlns="http://www.w3.org/2000/svg" width="21" height="21" viewBox="0 0 21 21" fill="none"><g clip-path="url(#clip0_5533_10862)"><mask id="mask0_5533_10862" style="mask-type:luminance" maskUnits="userSpaceOnUse" x="-3" y="0" width="28" height="21"><path d="M-2.67662 0.625H24.0782V20.6911H-2.67662V0.625Z" fill="white"></path></mask><g mask="url(#mask0_5533_10862)"><path fill-rule="evenodd" clip-rule="evenodd" d="M-2.67662 0.625V20.6911H24.0782V0.625H-2.67662Z" fill="#BF2714"></path><mask id="mask1_5533_10862" style="mask-type:luminance" maskUnits="userSpaceOnUse" x="-3" y="0" width="28" height="21"><path fill-rule="evenodd" clip-rule="evenodd" d="M-2.67662 0.625V20.6911H24.0782V0.625H-2.67662Z" fill="white"></path></mask><g mask="url(#mask1_5533_10862)"><path fill-rule="evenodd" clip-rule="evenodd" d="M-2.67662 -1.04736V10.6579H24.0782V-1.04736H-2.67662Z" fill="#3D58DB"></path></g><path fill-rule="evenodd" clip-rule="evenodd" d="M-2.67662 0.625V20.6911L12.373 10.6581L-2.67662 0.625Z" fill="#F7FCFF"></path><mask id="mask2_5533_10862" style="mask-type:luminance" maskUnits="userSpaceOnUse" x="-3" y="0" width="16" height="21"><path fill-rule="evenodd" clip-rule="evenodd" d="M-2.67662 0.625V20.6911L12.373 10.6581L-2.67662 0.625Z" fill="white"></path></mask><g mask="url(#mask2_5533_10862)"><path fill-rule="evenodd" clip-rule="evenodd" d="M8.69837 9.75496L9.76513 10.1663L10.3998 9.41943L10.4166 10.4183L11.3984 10.7377L10.365 11.0884L10.4332 12.0064L9.75251 11.3032L8.68265 11.5067L9.31431 10.6968L8.69837 9.75496Z" fill="#FECA00"></path><path fill-rule="evenodd" clip-rule="evenodd" d="M-1.33472 14.7716L-0.354177 15.2051L0.366716 14.436L0.297337 15.4571L1.36534 15.7543L0.245717 16.1272L0.400034 17.023L-0.379503 16.3829L-1.35049 16.5233L-0.805039 15.7356L-1.33472 14.7716Z" fill="#FECA00"></path><path fill-rule="evenodd" clip-rule="evenodd" d="M-1.33462 4.73835L-0.249575 5.13819L0.366815 4.40283L0.401939 5.39021L1.36544 5.72109L0.350319 6.06033L0.400133 6.98981L-0.274901 6.31603L-1.35039 6.49015L-0.700445 5.66873L-1.33462 4.73835Z" fill="#FECA00"></path><path fill-rule="evenodd" clip-rule="evenodd" d="M4.11376 12.7752C5.26816 12.7752 6.20402 11.8393 6.20402 10.6849C6.20402 9.53055 5.26816 8.59473 4.11376 8.59473C2.95936 8.59473 2.02354 9.53055 2.02354 10.6849C2.02354 11.8393 2.95936 12.7752 4.11376 12.7752Z" fill="#FECA00"></path><path fill-rule="evenodd" clip-rule="evenodd" d="M3.8667 7.51377L3.97902 8.85653C3.98976 8.93806 4.0525 9.00305 4.1336 9.01659C4.23551 9.03365 4.33193 8.96488 4.349 8.86299L4.49724 7.52478C4.49985 7.50921 4.50129 7.49348 4.50157 7.4777C4.50464 7.30165 4.36441 7.15644 4.18835 7.15337C4.17258 7.15309 4.15681 7.15399 4.14116 7.15604C3.96659 7.17904 3.84371 7.3392 3.8667 7.51377ZM3.51712 8.16271L3.69071 8.74683C3.70682 8.80105 3.76098 8.83463 3.82221 8.82383C3.87242 8.81196 3.9035 8.76165 3.89163 8.71145L3.7531 8.12522C3.73716 8.05781 3.67185 8.01416 3.60347 8.02522C3.5989 8.02596 3.59438 8.02699 3.58995 8.02831C3.53272 8.04532 3.50012 8.10549 3.51712 8.16271ZM4.45591 8.77117C4.4423 8.82092 4.4716 8.87229 4.52683 8.88722C4.58218 8.89883 4.63747 8.86717 4.65547 8.81354L4.84933 8.23584C4.86833 8.17924 4.83784 8.11797 4.78125 8.09898C4.77686 8.09751 4.77239 8.09631 4.76785 8.09542C4.69989 8.08196 4.63308 8.12332 4.61481 8.19014L4.45591 8.77117ZM6.19257 8.1841L5.25805 9.216C5.20799 9.28122 5.20642 9.37152 5.25417 9.43849C5.31416 9.5226 5.43098 9.54216 5.5151 9.48221L6.63059 8.63774C6.64347 8.62857 6.65559 8.61847 6.66696 8.60751C6.79363 8.48519 6.79714 8.28336 6.67482 8.1567C6.66387 8.14535 6.65208 8.13483 6.63954 8.12522C6.49991 8.01804 6.29975 8.0444 6.19257 8.1841ZM5.9083 10.3746L7.30365 10.2666C7.47822 10.2436 7.63842 10.3665 7.66141 10.541C7.66342 10.5568 7.66434 10.5725 7.66408 10.5883C7.66099 10.7644 7.51576 10.9046 7.33977 10.9015C7.32396 10.9012 7.30825 10.8997 7.29269 10.8971L5.90186 10.7445C5.79994 10.7275 5.73113 10.6311 5.74819 10.5292C5.76181 10.4481 5.82678 10.3854 5.9083 10.3746ZM6.63243 12.5971L5.54879 11.6536C5.48355 11.6035 5.39326 11.602 5.3263 11.6498C5.24218 11.7097 5.22263 11.8266 5.28263 11.9107L6.17886 13.0352C6.18797 13.048 6.19808 13.0602 6.20904 13.0715C6.33136 13.1981 6.53319 13.2017 6.65986 13.0794C6.67123 13.0685 6.68176 13.0567 6.69138 13.0441C6.79856 12.9044 6.77214 12.7043 6.63243 12.5971ZM4.3902 12.3038L4.47293 13.7127C4.49592 13.8872 4.37304 14.0474 4.19847 14.0704C4.18283 14.0725 4.16706 14.0733 4.15128 14.0731C3.97522 14.07 3.835 13.9248 3.83807 13.7488C3.83835 13.733 3.83979 13.7173 3.84239 13.7017L4.02022 12.2974C4.03728 12.1955 4.13371 12.1268 4.23562 12.1438C4.31673 12.1574 4.37946 12.2223 4.3902 12.3038ZM2.19038 13.0649L3.11117 11.9444C3.16122 11.8791 3.1628 11.7888 3.11505 11.7218C3.05506 11.6377 2.93824 11.6183 2.85412 11.6782L1.75231 12.6114C1.73946 12.6205 1.72731 12.6306 1.71597 12.6415C1.5893 12.7639 1.58578 12.9657 1.7081 13.0924C1.71906 13.1037 1.73084 13.1143 1.74337 13.1239C1.88306 13.2311 2.0832 13.2047 2.19038 13.0649ZM2.46094 10.7858L1.05698 10.9015C0.882404 10.9245 0.722242 10.8016 0.699258 10.627C0.697193 10.6114 0.696298 10.5956 0.696574 10.5798C0.699643 10.4038 0.844855 10.2635 1.02091 10.2666C1.03669 10.2669 1.05242 10.2683 1.06798 10.2709L2.4674 10.4158C2.5693 10.4328 2.63807 10.5293 2.62102 10.6312C2.60744 10.7124 2.54248 10.7751 2.46094 10.7858ZM1.62963 8.58597L2.82042 9.50671C2.88567 9.55679 2.97596 9.55838 3.04292 9.51064C3.12704 9.45061 3.14659 9.33381 3.0866 9.2497L2.08328 8.1479C2.07412 8.13505 2.06402 8.1229 2.05305 8.11155C1.93073 7.98489 1.7289 7.98137 1.60223 8.10368C1.59089 8.11464 1.58037 8.12643 1.57076 8.13895C1.46358 8.27865 1.48994 8.47879 1.62963 8.58597ZM5.13175 8.93457L5.42204 8.39879C5.45049 8.34631 5.51609 8.32681 5.56857 8.35525C5.57264 8.35746 5.57656 8.35991 5.58032 8.36262C5.6365 8.40316 5.65182 8.48021 5.61541 8.53915L5.29885 9.05163C5.27173 9.09552 5.21418 9.10915 5.1703 9.08198C5.11935 9.04636 5.10481 8.98431 5.13175 8.93457ZM6.60208 9.91272L6.01799 10.0863C5.96373 10.1024 5.9302 10.1565 5.94099 10.2178C5.95286 10.268 6.00319 10.2991 6.05336 10.2872L6.63954 10.1487C6.70701 10.1328 6.75066 10.0675 6.73962 9.99908C6.73887 9.99449 6.73778 9.98997 6.73653 9.98554C6.71947 9.92827 6.65936 9.89574 6.60208 9.91272ZM5.83021 11.5274L6.36597 11.8177C6.41848 11.8461 6.43796 11.9116 6.40953 11.9641C6.40736 11.9682 6.40485 11.9722 6.40217 11.9759C6.36162 12.0321 6.28462 12.0474 6.22568 12.011L5.71315 11.6944C5.66929 11.6673 5.65569 11.6097 5.68279 11.5659C5.7185 11.5149 5.78046 11.5004 5.83021 11.5274ZM4.85209 12.9977L4.67851 12.4135C4.6624 12.3594 4.60824 12.3258 4.547 12.3365C4.4968 12.3484 4.46572 12.3987 4.47759 12.4489L4.61612 13.0352C4.63205 13.1026 4.69737 13.1462 4.76576 13.1352C4.77032 13.1344 4.77484 13.1334 4.77927 13.1321C4.8365 13.1151 4.8691 13.0549 4.85209 12.9977ZM3.23747 12.2258L2.94718 12.7616C2.91873 12.8141 2.85313 12.8336 2.80064 12.8052C2.79658 12.8029 2.79266 12.8005 2.78891 12.7977C2.73272 12.7573 2.7174 12.6802 2.75381 12.6212L3.07037 12.1088C3.09748 12.0649 3.15504 12.0513 3.19892 12.0784C3.24987 12.1141 3.26441 12.1761 3.23747 12.2258ZM1.76713 11.2477L2.35125 11.0741C2.40547 11.058 2.43904 11.0038 2.42824 10.9426C2.41638 10.8924 2.36607 10.8613 2.31587 10.8731L1.72964 11.0117C1.66222 11.0276 1.61857 11.0929 1.62963 11.1613C1.63038 11.1659 1.63141 11.1704 1.63273 11.1749C1.64973 11.2321 1.70991 11.2647 1.76713 11.2477ZM2.53899 9.63304L2.00321 9.34275C1.95073 9.31433 1.93123 9.24869 1.95966 9.19627C1.96187 9.19217 1.96434 9.18824 1.96704 9.18448C2.00757 9.1283 2.08463 9.113 2.14356 9.14937L2.65604 9.46599C2.69993 9.49308 2.71353 9.55061 2.68642 9.5945C2.65075 9.64542 2.58872 9.65997 2.53899 9.63304ZM5.65561 9.49283C5.61082 9.51842 5.59521 9.57544 5.6237 9.6251C5.65464 9.67242 5.71616 9.68915 5.76675 9.6639L6.31238 9.3925C6.3658 9.36591 6.38754 9.30103 6.36096 9.24761C6.35895 9.24343 6.35661 9.23941 6.35402 9.23557C6.31547 9.17804 6.23897 9.16007 6.17886 9.19435L5.65561 9.49283ZM5.87761 10.9224C5.89249 10.8672 5.94391 10.8378 5.99366 10.8515L6.57466 11.0104C6.64146 11.0286 6.68285 11.0954 6.66939 11.1634C6.66847 11.1679 6.6673 11.1725 6.66579 11.1768C6.64681 11.2334 6.58553 11.2639 6.52901 11.2449L5.95127 11.0511C5.89759 11.0331 5.86599 10.9778 5.87761 10.9224ZM5.27195 12.0512C5.24639 12.0064 5.18934 11.9908 5.13974 12.0193C5.09238 12.0503 5.07568 12.1117 5.10088 12.1624L5.37229 12.7079C5.39888 12.7614 5.46376 12.7832 5.51721 12.7566C5.52135 12.7545 5.52536 12.7522 5.52921 12.7496C5.58677 12.711 5.60476 12.6346 5.57044 12.5744L5.27195 12.0512ZM3.84239 12.2732C3.89762 12.2881 3.92692 12.3395 3.91331 12.3892L3.7544 12.9702C3.73614 13.0371 3.66933 13.0784 3.60138 13.0649C3.59684 13.0641 3.59235 13.0629 3.58797 13.0614C3.53138 13.0424 3.50089 12.9812 3.51988 12.9246L3.71375 12.3468C3.73175 12.2932 3.78704 12.2615 3.84239 12.2732ZM2.7136 11.6675C2.7584 11.642 2.77401 11.5849 2.74551 11.5353C2.71458 11.488 2.65309 11.4713 2.60245 11.4964L2.05687 11.7679C2.00342 11.7945 1.98164 11.8594 2.00823 11.9128C2.0103 11.9169 2.01262 11.9209 2.0152 11.9248C2.05374 11.9824 2.13021 12.0003 2.19038 11.966L2.7136 11.6675ZM2.49163 10.238C2.47671 10.2932 2.42534 10.3225 2.37558 10.3089L1.79455 10.15C1.72773 10.1317 1.68638 10.0649 1.69983 9.99699C1.70073 9.99239 1.70192 9.98796 1.70339 9.98353C1.72238 9.92693 1.78366 9.8965 1.84025 9.91547L2.41796 10.1094C2.47158 10.1273 2.50325 10.1826 2.49163 10.238ZM3.09727 9.10915C3.12283 9.15396 3.17988 9.1696 3.22947 9.14109C3.27684 9.11015 3.29354 9.0487 3.26834 8.99803L2.99692 8.45245C2.97034 8.399 2.90546 8.37723 2.85201 8.40382C2.84787 8.40588 2.84386 8.40821 2.84002 8.41078C2.78245 8.44932 2.76445 8.52579 2.79878 8.58597L3.09727 9.10915Z" fill="#FECA00"></path></g></g></g><defs><clipPath id="clip0_5533_10862"><rect x="0.200012" y="0.625" width="20" height="20" rx="10" fill="white"></rect></clipPath></defs></svg> 