<?xml version="1.0" encoding="UTF-8"?> <svg xmlns="http://www.w3.org/2000/svg" width="21" height="21" viewBox="0 0 21 21" fill="none"><g clip-path="url(#clip0_5533_10666)"><path d="M0.200012 0.625H20.2V20.625H0.200012V0.625Z" fill="#EE1C25"></path><path d="M8.20001 4.725L3.10001 8.025L5.20001 2.625L7.00001 8.025L2.20001 4.725H8.20001Z" fill="#FFFF00"></path><path d="M9.44129 1.9158L11.2585 2.80584L9.35637 3.13267L10.5894 1.69227L10.4707 3.62897L9.44129 1.9158Z" fill="#FFFF00"></path><path d="M11.7574 3.68011L13.086 5.20816L11.2053 4.76877L12.9028 3.92113L12.0392 5.66016L11.7574 3.68011Z" fill="#FFFF00"></path><path d="M12.1756 6.58346L12.7647 8.52184L11.2265 7.35219L13.1232 7.27154L11.624 8.50701L12.1756 6.58346Z" fill="#FFFF00"></path><path d="M10.591 8.65729L10.3865 10.6708L9.42001 8.99979L11.199 9.65679L9.34101 10.2173L10.591 8.65729Z" fill="#FFFF00"></path></g><defs><clipPath id="clip0_5533_10666"><rect x="0.200012" y="0.625" width="20" height="20" rx="10" fill="white"></rect></clipPath></defs></svg> 