<?xml version="1.0" encoding="UTF-8"?> <svg xmlns="http://www.w3.org/2000/svg" width="21" height="21" viewBox="0 0 21 21" fill="none"><g clip-path="url(#clip0_5533_10822)"><rect x="0.200012" y="0.625" width="20" height="20" rx="10" fill="#E31D1C"></rect><mask id="mask0_5533_10822" style="mask-type:luminance" maskUnits="userSpaceOnUse" x="0" y="3" width="21" height="16"><path d="M0.211685 3.19824H20.2117V18.1982H0.211685V3.19824Z" fill="white"></path></mask><g mask="url(#mask0_5533_10822)"><path fill-rule="evenodd" clip-rule="evenodd" d="M0.211685 -17.1465V46.8535H20.2117V-17.1465H0.211685Z" fill="#E31D1C"></path><mask id="mask1_5533_10822" style="mask-type:luminance" maskUnits="userSpaceOnUse" x="0" y="0" width="21" height="21"><path fill-rule="evenodd" clip-rule="evenodd" d="M0.211685 0.694824V20.6948H20.2117V0.694824H0.211685Z" fill="white"></path></mask><g mask="url(#mask1_5533_10822)"><path fill-rule="evenodd" clip-rule="evenodd" d="M10.2276 13.2685C8.88922 12.9388 7.84103 11.8186 7.85322 10.1765C7.8646 8.63937 8.79528 7.34009 10.2665 6.98836C11.7377 6.63664 13.033 7.38327 13.033 7.38327C12.6263 6.42339 11.2137 5.74904 10.0556 5.75098C7.89985 5.75459 5.6018 7.50287 5.58199 10.1765C5.56146 12.9484 8.04285 14.5269 10.2252 14.5233C11.9748 14.5204 12.8047 13.3234 12.9765 12.8142C12.9765 12.8142 11.5659 13.5982 10.2276 13.2685ZM13.2762 9.65169L11.9428 10.1414L13.4473 10.6722L13.4217 12.2581L14.413 11.0683L16.0506 11.1873L14.7529 10.0718L15.6048 8.88196L14.2177 9.34882L13.2262 8.24657L13.2762 9.65169Z" fill="#F7FCFF"></path></g></g></g><defs><clipPath id="clip0_5533_10822"><rect x="0.200012" y="0.625" width="20" height="20" rx="10" fill="white"></rect></clipPath></defs></svg> 