<?xml version="1.0" encoding="UTF-8"?> <svg xmlns="http://www.w3.org/2000/svg" width="21" height="21" viewBox="0 0 21 21" fill="none"><g clip-path="url(#clip0_5533_10917)"><path d="M0.200012 0.625H20.2V7.29297H0.200012V0.625Z" fill="#FF9933"></path><path d="M0.200012 7.29297H20.2V13.957H0.200012V7.29297Z" fill="white"></path><path d="M0.200012 13.957H20.2V20.625H0.200012V13.957Z" fill="#128807"></path><path d="M10.2 13.2918C11.6728 13.2918 12.8667 12.0979 12.8667 10.6252C12.8667 9.1524 11.6728 7.9585 10.2 7.9585C8.72725 7.9585 7.53335 9.1524 7.53335 10.6252C7.53335 12.0979 8.72725 13.2918 10.2 13.2918Z" fill="#000088"></path><path d="M10.2 12.9587C11.4887 12.9587 12.5333 11.914 12.5333 10.6253C12.5333 9.33666 11.4887 8.29199 10.2 8.29199C8.91135 8.29199 7.86668 9.33666 7.86668 10.6253C7.86668 11.914 8.91135 12.9587 10.2 12.9587Z" fill="white"></path><path d="M10.2 11.0915C10.4577 11.0915 10.6667 10.8826 10.6667 10.6249C10.6667 10.3671 10.4577 10.1582 10.2 10.1582C9.94228 10.1582 9.73335 10.3671 9.73335 10.6249C9.73335 10.8826 9.94228 11.0915 10.2 11.0915Z" fill="#000088"></path><path d="M12.4977 11.049C12.5634 11.0577 12.6237 11.0114 12.6323 10.9457C12.641 10.88 12.5947 10.8197 12.529 10.8111C12.4633 10.8024 12.403 10.8487 12.3944 10.9144C12.3857 10.9801 12.432 11.0404 12.4977 11.049Z" fill="#000088"></path><path d="M10.2 12.9578L10.28 11.5578L10.2 10.8911L10.12 11.5578L10.2 12.9578Z" fill="#000088"></path><path d="M12.3095 11.6295C12.3708 11.6548 12.441 11.6258 12.4663 11.5645C12.4917 11.5033 12.4626 11.4331 12.4014 11.4077C12.3402 11.3824 12.27 11.4115 12.2446 11.4727C12.2192 11.5339 12.2483 11.6041 12.3095 11.6295Z" fill="#000088"></path><path d="M9.59611 12.8788L10.0357 11.5472L10.131 10.8825L9.88118 11.5058L9.59611 12.8788Z" fill="#000088"></path><path d="M11.9776 12.1414C12.0302 12.1817 12.1056 12.1718 12.1459 12.1192C12.1862 12.0667 12.1763 11.9913 12.1238 11.951C12.0712 11.9106 11.9958 11.9206 11.9555 11.9731C11.9152 12.0257 11.9251 12.101 11.9776 12.1414Z" fill="#000088"></path><path d="M9.03335 12.6457L9.80263 11.4733L10.0667 10.8559L9.66407 11.3933L9.03335 12.6457Z" fill="#000088"></path><path d="M11.5246 12.5494C11.565 12.602 11.6403 12.6119 11.6929 12.5716C11.7454 12.5312 11.7554 12.4559 11.715 12.4033C11.6747 12.3507 11.5993 12.3408 11.5468 12.3812C11.4942 12.4215 11.4843 12.4968 11.5246 12.5494Z" fill="#000088"></path><path d="M8.5501 12.2748L9.59662 11.3414L10.0115 10.8134L9.48348 11.2282L8.5501 12.2748Z" fill="#000088"></path><path d="M10.9813 12.8267C11.0067 12.888 11.0769 12.917 11.1381 12.8917C11.1993 12.8663 11.2284 12.7961 11.203 12.7349C11.1777 12.6737 11.1075 12.6446 11.0462 12.6699C10.985 12.6953 10.9559 12.7655 10.9813 12.8267Z" fill="#000088"></path><path d="M8.17928 11.7911L9.43171 11.1604L9.96906 10.7578L9.35171 11.0218L8.17928 11.7911Z" fill="#000088"></path><path d="M10.3847 12.954C10.3934 13.0197 10.4537 13.066 10.5194 13.0573C10.5851 13.0487 10.6313 12.9884 10.6227 12.9227C10.614 12.857 10.5538 12.8107 10.4881 12.8194C10.4223 12.828 10.3761 12.8883 10.3847 12.954Z" fill="#000088"></path><path d="M7.94618 11.2289L9.31918 10.9438L9.94243 10.694L9.27777 10.7892L7.94618 11.2289Z" fill="#000088"></path><path d="M9.7756 12.9226C9.76695 12.9883 9.81321 13.0486 9.87891 13.0572C9.94462 13.0659 10.0049 13.0196 10.0135 12.9539C10.0222 12.8882 9.97595 12.8279 9.91024 12.8193C9.84453 12.8106 9.78425 12.8569 9.7756 12.9226Z" fill="#000088"></path><path d="M7.86668 10.6249L9.26668 10.7049L9.93334 10.6249L9.26668 10.5449L7.86668 10.6249Z" fill="#000088"></path><path d="M9.19539 12.7344C9.17003 12.7956 9.1991 12.8658 9.26033 12.8911C9.32156 12.9165 9.39176 12.8874 9.41712 12.8262C9.44248 12.765 9.41341 12.6948 9.35218 12.6694C9.29095 12.644 9.22075 12.6731 9.19539 12.7344Z" fill="#000088"></path><path d="M7.94618 10.0209L9.27777 10.4605L9.94243 10.5558L9.31918 10.306L7.94618 10.0209Z" fill="#000088"></path><path d="M8.68363 12.4027C8.64329 12.4553 8.65321 12.5306 8.70579 12.571C8.75836 12.6113 8.83369 12.6014 8.87404 12.5488C8.91438 12.4962 8.90447 12.4209 8.85189 12.3806C8.79931 12.3402 8.72398 12.3501 8.68363 12.4027Z" fill="#000088"></path><path d="M8.17929 9.45831L9.35172 10.2276L9.96907 10.4916L9.43172 10.089L8.17929 9.45831Z" fill="#000088"></path><path d="M8.27521 11.9495C8.22263 11.9899 8.21272 12.0652 8.25306 12.1178C8.29341 12.1704 8.36874 12.1803 8.42132 12.1399C8.47389 12.0996 8.48381 12.0243 8.44347 11.9717C8.40312 11.9191 8.32779 11.9092 8.27521 11.9495Z" fill="#000088"></path><path d="M8.55009 8.9751L9.48348 10.0216L10.0114 10.4365L9.59661 9.90848L8.55009 8.9751Z" fill="#000088"></path><path d="M7.99797 11.4067C7.93674 11.4321 7.90766 11.5023 7.93302 11.5635C7.95839 11.6247 8.02858 11.6538 8.08981 11.6284C8.15104 11.6031 8.18012 11.5329 8.15475 11.4717C8.12939 11.4104 8.0592 11.3813 7.99797 11.4067Z" fill="#000088"></path><path d="M9.03334 8.60471L9.66406 9.85714L10.0667 10.3945L9.80262 9.77714L9.03334 8.60471Z" fill="#000088"></path><path d="M7.8708 10.8099C7.80509 10.8186 7.75884 10.8789 7.76749 10.9446C7.77614 11.0103 7.83641 11.0565 7.90212 11.0479C7.96783 11.0392 8.01408 10.979 8.00543 10.9133C7.99678 10.8475 7.9365 10.8013 7.8708 10.8099Z" fill="#000088"></path><path d="M9.5961 8.37114L9.88117 9.74414L10.131 10.3674L10.0357 9.70273L9.5961 8.37114Z" fill="#000088"></path><path d="M7.90235 10.201C7.83664 10.1923 7.77636 10.2386 7.76771 10.3043C7.75906 10.37 7.80532 10.4303 7.87102 10.4389C7.93673 10.4476 7.99701 10.4013 8.00566 10.3356C8.01431 10.2699 7.96806 10.2096 7.90235 10.201Z" fill="#000088"></path><path d="M10.2 8.29222L10.12 9.69222L10.2 10.3589L10.28 9.69222L10.2 8.29222Z" fill="#000088"></path><path d="M8.09048 9.62053C8.02925 9.59517 7.95906 9.62424 7.9337 9.68547C7.90833 9.7467 7.93741 9.8169 7.99864 9.84226C8.05987 9.86762 8.13006 9.83855 8.15543 9.77732C8.18079 9.71609 8.15171 9.64589 8.09048 9.62053Z" fill="#000088"></path><path d="M10.8039 8.37123L10.3643 9.70282L10.269 10.3675L10.5188 9.74423L10.8039 8.37123Z" fill="#000088"></path><path d="M8.42238 9.10861C8.3698 9.06827 8.29447 9.07819 8.25412 9.13077C8.21378 9.18334 8.22369 9.25867 8.27627 9.29902C8.32885 9.33936 8.40418 9.32945 8.44453 9.27687C8.48487 9.22429 8.47495 9.14896 8.42238 9.10861Z" fill="#000088"></path><path d="M11.3667 8.6043L10.5974 9.77673L10.3333 10.3941L10.736 9.85673L11.3667 8.6043Z" fill="#000088"></path><path d="M8.87542 8.70059C8.83507 8.64801 8.75974 8.63809 8.70716 8.67844C8.65459 8.71878 8.64467 8.79411 8.68501 8.84669C8.72536 8.89927 8.80069 8.90919 8.85327 8.86884C8.90585 8.8285 8.91576 8.75317 8.87542 8.70059Z" fill="#000088"></path><path d="M11.8499 8.97524L10.8034 9.90862L10.3886 10.4366L10.9165 10.0218L11.8499 8.97524Z" fill="#000088"></path><path d="M9.41874 8.42327C9.39337 8.36204 9.32318 8.33296 9.26195 8.35832C9.20072 8.38369 9.17164 8.45388 9.19701 8.51511C9.22237 8.57634 9.29256 8.60542 9.35379 8.58005C9.41502 8.55469 9.4441 8.4845 9.41874 8.42327Z" fill="#000088"></path><path d="M12.2207 9.45891L10.9683 10.0896L10.431 10.4922L11.0483 10.2282L12.2207 9.45891Z" fill="#000088"></path><path d="M10.0153 8.29599C10.0066 8.23028 9.94635 8.18403 9.88065 8.19268C9.81494 8.20133 9.76869 8.26161 9.77734 8.32732C9.78599 8.39302 9.84627 8.43928 9.91197 8.43063C9.97768 8.42198 10.0239 8.3617 10.0153 8.29599Z" fill="#000088"></path><path d="M12.4538 10.0211L11.0808 10.3062L10.4576 10.556L11.1223 10.4608L12.4538 10.0211Z" fill="#000088"></path><path d="M10.6244 8.32739C10.6331 8.26168 10.5868 8.20141 10.5211 8.19276C10.4554 8.18411 10.3951 8.23036 10.3865 8.29607C10.3778 8.36177 10.4241 8.42205 10.4898 8.4307C10.5555 8.43935 10.6158 8.3931 10.6244 8.32739Z" fill="#000088"></path><path d="M12.5333 10.6251L11.1333 10.5451L10.4667 10.6251L11.1333 10.7051L12.5333 10.6251Z" fill="#000088"></path><path d="M11.2046 8.51565C11.23 8.45442 11.2009 8.38422 11.1397 8.35886C11.0785 8.3335 11.0083 8.36257 10.9829 8.4238C10.9575 8.48503 10.9866 8.55523 11.0478 8.58059C11.1091 8.60595 11.1793 8.57688 11.2046 8.51565Z" fill="#000088"></path><path d="M12.4538 11.2291L11.1223 10.7895L10.4576 10.6942L11.0808 10.944L12.4538 11.2291Z" fill="#000088"></path><path d="M11.7164 8.84729C11.7567 8.79471 11.7468 8.71938 11.6942 8.67903C11.6417 8.63869 11.5663 8.64861 11.526 8.70118C11.4856 8.75376 11.4956 8.82909 11.5481 8.86944C11.6007 8.90978 11.676 8.89987 11.7164 8.84729Z" fill="#000088"></path><path d="M12.2207 11.7917L11.0483 11.0224L10.431 10.7584L10.9683 11.161L12.2207 11.7917Z" fill="#000088"></path><path d="M12.1248 9.30046C12.1774 9.26011 12.1873 9.18478 12.147 9.13221C12.1066 9.07963 12.0313 9.06971 11.9787 9.11005C11.9261 9.1504 11.9162 9.22573 11.9566 9.27831C11.9969 9.33089 12.0722 9.3408 12.1248 9.30046Z" fill="#000088"></path><path d="M11.8499 12.2749L10.9165 11.2284L10.3886 10.8135L10.8034 11.3415L11.8499 12.2749Z" fill="#000088"></path><path d="M12.4021 9.84329C12.4633 9.81793 12.4924 9.74773 12.467 9.6865C12.4416 9.62527 12.3714 9.5962 12.3102 9.62156C12.249 9.64692 12.2199 9.71712 12.2453 9.77835C12.2706 9.83958 12.3408 9.86865 12.4021 9.84329Z" fill="#000088"></path><path d="M11.3667 12.6453L10.736 11.3929L10.3334 10.8555L10.5974 11.4729L11.3667 12.6453Z" fill="#000088"></path><path d="M12.5292 10.4401C12.5949 10.4314 12.6412 10.3711 12.6325 10.3054C12.6239 10.2397 12.5636 10.1935 12.4979 10.2021C12.4322 10.2108 12.3859 10.271 12.3946 10.3367C12.4032 10.4025 12.4635 10.4487 12.5292 10.4401Z" fill="#000088"></path><path d="M10.8039 12.8789L10.5189 11.5059L10.269 10.8826L10.3643 11.5473L10.8039 12.8789Z" fill="#000088"></path></g><defs><clipPath id="clip0_5533_10917"><rect x="0.200012" y="0.625" width="20" height="20" rx="10" fill="white"></rect></clipPath></defs></svg> 