<?xml version="1.0" encoding="UTF-8"?> <svg xmlns="http://www.w3.org/2000/svg" width="25" height="25" viewBox="0 0 25 25" fill="none"><path d="M24.4 12.5737C24.4151 17.4289 21.5245 21.8151 17.0449 23.6906C12.5652 25.5661 7.40455 24.5678 3.95401 21.1496C0.503472 17.7314 -0.540771 12.5737 1.29044 8.08164C3.12164 3.58953 7.49535 0.655282 12.3382 0.625032C18.982 0.609907 24.3697 5.94902 24.4 12.5737Z" fill="#8DC63F"></path><path d="M23.5064 12.5731C23.5216 17.0652 20.8428 21.1187 16.6961 22.8581C12.5494 24.5974 7.78226 23.6597 4.589 20.5137C1.39574 17.3526 0.427163 12.5882 2.12216 8.44399C3.81717 4.28463 7.85793 1.57726 12.3376 1.54701C18.482 1.51676 23.4762 6.4475 23.5064 12.5731Z" fill="#F9E988"></path><path d="M12.61 2.25872C13.3213 2.13772 14.0326 2.13772 14.7439 2.25872C15.4552 2.36459 16.1513 2.60659 16.787 2.93934C17.4226 3.28722 17.9674 3.75609 18.5122 4.19471C19.057 4.63334 19.6019 5.08709 20.1164 5.58621C20.6461 6.07021 21.1001 6.62983 21.4785 7.23483C21.872 7.83983 22.1898 8.4902 22.4319 9.1557C22.9011 10.5169 23.0524 11.9841 22.8254 13.3756H22.7497C22.5227 11.9841 22.2049 10.6682 21.7055 9.41282C21.4785 8.77757 21.1909 8.15745 20.8883 7.56758C20.5553 6.9777 20.2072 6.38783 19.8137 5.84333C19.4203 5.28371 18.9208 4.78459 18.3609 4.37621C17.8009 3.96784 17.1502 3.71072 16.5297 3.46872C15.9092 3.22672 15.2736 2.96959 14.6228 2.77297C13.972 2.59147 13.3061 2.44022 12.61 2.30409V2.25872Z" fill="white"></path><path d="M18.0277 8.65766C17.2256 8.43078 16.3932 8.09804 15.5457 7.76529C15.5003 7.55354 15.3036 7.29641 14.9253 6.96366C14.3804 6.47966 13.3362 6.49479 12.4433 6.70654C11.4596 6.47967 10.4759 6.38892 9.53757 6.61579C1.86466 8.73328 6.2081 13.8758 3.39319 19.0636C3.78667 19.9106 8.11498 24.8716 14.3653 23.5406C14.3653 23.5406 12.2314 18.4133 17.0591 15.9479C20.9788 13.9514 23.7937 10.2307 18.0277 8.65766Z" fill="#8BC53F"></path><path d="M12.444 6.70384C13.0039 6.74922 15.0319 7.39959 15.5464 7.76259C15.1075 6.50722 13.6547 6.34084 12.444 6.70384Z" fill="#009345"></path><path d="M18.9818 12.0299C18.9818 12.4382 18.4824 12.65 18.1949 12.3626C17.9073 12.0752 18.1041 11.5761 18.5127 11.561C18.77 11.5761 18.9818 11.7727 18.9818 12.0299ZM12.9737 9.89725C12.9737 10.7594 12.444 11.5459 11.6419 11.8786C10.8398 12.2114 9.9166 12.0299 9.29611 11.4097C8.67562 10.7896 8.49401 9.867 8.82696 9.06537C9.1599 8.26375 9.94687 7.73438 10.8095 7.73438C11.3846 7.73438 11.9294 7.96125 12.3229 8.3545C12.7466 8.778 12.9737 9.3225 12.9737 9.89725Z" fill="white"></path><path d="M12.3383 9.91043C12.3383 10.5154 11.975 11.0751 11.4 11.3019C10.84 11.5288 10.1892 11.4078 9.75035 10.9692C9.31147 10.5306 9.1904 9.89531 9.41741 9.32056C9.64442 8.76093 10.2044 8.38281 10.8097 8.38281C11.6572 8.39794 12.3383 9.07856 12.3383 9.91043Z" fill="#58595B"></path><path d="M20.7215 12.9807C18.9811 14.2058 16.9986 15.1285 14.1988 15.1285C12.8821 15.1285 12.6249 13.737 11.7471 14.4176C11.2931 14.7655 9.71915 15.552 8.46304 15.5066C7.20692 15.4461 5.17897 14.705 4.61901 12.043C4.39201 14.7201 4.28607 16.6863 3.27209 18.9399C5.26977 22.1464 10.037 24.6118 14.3653 23.5531C13.8961 20.3012 16.7413 17.125 18.3304 15.5066C18.9509 14.8713 20.1162 13.8731 20.7215 12.9807Z" fill="#8BC53F"></path><path d="M20.6461 13.0586C20.1013 13.5577 19.4656 13.9207 18.8149 14.2383C18.149 14.556 17.468 14.798 16.7567 14.9946C16.0454 15.1761 15.3038 15.3122 14.5623 15.2517C13.8056 15.1912 13.0489 14.9341 12.5494 14.3745L12.5797 14.3442C13.1851 14.7375 13.8964 14.8736 14.5925 14.9038C15.3038 14.919 16.0151 14.8736 16.7113 14.7375C17.4074 14.5862 18.1036 14.3745 18.7695 14.1022C19.4354 13.83 20.0861 13.5123 20.6612 13.0586H20.6461Z" fill="#58595B"></path></svg> 