<?xml version="1.0" encoding="UTF-8"?> <svg xmlns="http://www.w3.org/2000/svg" width="187" height="217" viewBox="0 0 187 217" fill="none"><path d="M180.96 153.53L152.11 136.87L151.5 136.52H150.14L99.5898 165.73V216.06C103.18 215.69 106.67 214.58 109.8 212.77L180.94 171.7C184.22 169.79 186.18 166.39 186.18 162.59C186.18 158.79 184.22 155.42 180.96 153.53Z" fill="#3A5CFC"></path><path d="M4.66016 51.76L4.77016 51.82L4.66016 51.75V51.76Z" fill="#3A5CFC"></path><path d="M94.5093 165.73V216.06C90.9093 215.69 87.4293 214.58 84.2993 212.77L12.7393 171.45C9.6093 169.63 6.8893 167.17 4.7793 164.25L6.9893 162.97L9.1993 161.69L43.2793 142H43.2893L45.8293 140.54L48.3593 139.08L94.5093 165.74V165.73Z" fill="#3A5CFC"></path><path d="M94.5095 0V50.35L48.3595 76.99L45.8195 75.53L43.2895 74.07H43.2795L22.3395 61.97L6.97953 53.1L4.76953 51.82C6.87953 48.89 9.59953 46.44 12.7195 44.62L84.2995 3.31C87.4395 1.49 90.9195 0.36 94.5095 0Z" fill="#3A5CFC"></path><path d="M180.94 44.36L109.8 3.31C106.65 1.49 103.17 0.36 99.59 0V50.35L145.75 77L99.59 103.64V50.35H94.51V103.63L48.36 76.98L47.09 79.18L45.82 81.37L40.74 78.44L6.66 58.78L4.46 57.5L2.26 56.23C0.78 59.52 0 63.1 0 66.7V149.36C0 152.99 0.77 156.56 2.24 159.84L4.46 158.56L6.66 157.29L18.43 150.48L40.74 137.61L45.82 134.67L47.09 136.86L48.36 139.06L94.51 112.41V165.71H99.59V109.47L151.52 79.5L152.11 79.16L180.93 62.49C184.21 60.61 186.17 57.22 186.18 53.43C186.18 49.64 184.23 46.24 180.94 44.33V44.36ZM45.82 134.67V81.4L91.97 108.04L45.82 134.68V134.67Z" fill="#3A5CFC"></path></svg> 